<svg width="372" height="60" viewBox="0 0 372 60" fill="none" xmlns="http://www.w3.org/2000/svg">
<path d="M173.564 38.0535H162.067C162.067 38.0535 162.028 38.0535 162.015 38.0665L160.742 39.7334C160.742 39.7334 160.729 39.7855 160.742 39.7985C160.742 39.8245 160.781 39.8376 160.794 39.8376H171.226C171.368 39.8376 171.498 39.9548 171.381 40.1241L170.563 41.231C170.472 41.3612 170.329 41.4263 170.173 41.4263H162.755C162.755 41.4263 162.716 41.4263 162.703 41.4523L161.56 43.002C161.56 43.002 161.547 43.0541 161.56 43.0671C161.56 43.0932 161.599 43.1062 161.612 43.1062H168.783C168.991 43.1062 169.108 43.2104 168.991 43.3666L168.381 44.2001C168.134 44.5386 168.004 44.5517 167.601 44.5517H157.234C157.234 44.5517 157.195 44.5517 157.182 44.5777L155.909 46.2706C155.909 46.2706 155.896 46.3227 155.909 46.3357C155.909 46.3618 155.948 46.3748 155.961 46.3748H168.536C169.576 46.3748 170.355 46.0232 170.745 45.5023L174.811 40.0329C175.617 38.939 175.266 38.0535 173.564 38.0535Z" fill="#231F20"/>
<path d="M178.799 38.0787H177.63C177.63 38.0787 177.591 38.0787 177.578 38.1048C175.539 40.8655 173.616 43.5872 171.524 46.2828C171.511 46.3089 171.511 46.3349 171.524 46.3479C171.524 46.374 171.55 46.387 171.576 46.387H172.901C173.798 46.387 174.824 46.361 175.578 45.3322L179.553 39.98C180.319 38.9382 179.722 38.0787 178.799 38.0787Z" fill="#231F20"/>
<path d="M194.596 38.0535C191.206 38.0535 187.802 38.0535 184.411 38.0535C183.203 38.0535 182.553 38.2488 181.8 39.2646L177.838 44.5777C177.24 45.3721 177.708 46.3748 178.578 46.3748H183.645H183.671H189.335C190.114 46.3748 191.063 45.9451 191.452 45.4242L195.48 39.9938C196.207 39.0172 195.778 38.0535 194.596 38.0535ZM191.556 40.7622L189.114 44.0829C188.906 44.3563 188.594 44.5907 187.542 44.5777C185.866 44.5777 184.19 44.5777 182.515 44.5777C181.813 44.5777 181.397 44.3694 181.67 43.9266C181.943 43.4838 183.84 40.9835 184.19 40.5147C184.411 40.2152 184.684 39.8766 185.554 39.8766C187.178 39.8766 189.322 39.8766 190.933 39.8766C191.569 39.8766 192.024 40.1241 191.543 40.7752" fill="#231F20"/>
<path d="M157.647 22.285H192.84C192.84 22.285 192.957 22.3241 192.983 22.3762C193.009 22.4283 193.009 22.4934 192.97 22.5455L189.047 27.7284C188.969 27.8326 188.917 27.8847 188.813 27.9237L182.655 30.437C182.59 30.4631 182.551 30.5282 182.564 30.6063C182.564 30.6845 182.629 30.7366 182.707 30.7366L189.631 31.5049C189.631 31.5049 189.735 31.4919 189.774 31.4398L196.711 22.2981C196.711 22.2981 196.789 22.2329 196.828 22.2329L222.187 22.272H231.826C231.826 22.272 231.943 22.2981 231.969 22.3501C231.995 22.4022 231.982 22.4673 231.956 22.5194C230.657 24.2384 229.371 25.9704 228.072 27.6893C227.994 27.8065 227.929 27.8586 227.773 27.9237C225.876 28.7051 223.993 29.4864 222.096 30.2547C221.927 30.3329 221.966 30.424 222.161 30.4631C233.892 32.2992 245.61 34.1484 257.341 35.9846C257.458 35.9976 257.458 36.1018 257.341 36.1018H214.574C214.158 36.1148 213.795 36.0497 213.405 35.8804L205.441 32.5336C205.441 32.5336 205.363 32.4816 205.35 32.4295C205.35 32.3774 205.35 32.3253 205.376 32.2862L207.689 29.252C207.689 29.252 207.728 29.2129 207.754 29.1999L212.47 27.3638C212.535 27.3377 212.587 27.2596 212.561 27.1814C212.548 27.1033 212.483 27.0512 212.405 27.0512H205.195C205.195 27.0512 205.104 27.0773 205.065 27.1163L198.491 35.9455C198.491 35.9455 198.413 36.0106 198.374 36.0106H175.484C175.068 36.0106 174.718 35.9325 174.328 35.7762L166.481 32.5076C166.481 32.5076 166.403 32.4555 166.39 32.4034C166.377 32.3513 166.39 32.2992 166.416 32.2602L168.69 29.2911C168.69 29.2911 168.729 29.252 168.755 29.239L173.561 27.3247C173.626 27.2986 173.665 27.2205 173.652 27.1424C173.639 27.0642 173.574 27.0122 173.496 27.0122H166.208C166.208 27.0122 166.117 27.0382 166.091 27.0773C163.948 29.9031 161.713 32.8592 159.557 35.6851C159.375 35.9195 159.349 35.9585 159.05 35.9585H147.371C147.371 35.9585 147.332 35.9455 147.319 35.9195C147.319 35.8934 147.319 35.8674 147.319 35.8544L157.569 22.259C157.569 22.259 157.595 22.2329 157.621 22.2329" fill="#ED313D"/>
<path d="M150.127 55.9999C149.529 55.9869 149.347 55.6874 149.581 55.1405L153.18 50.205C153.439 49.8273 153.842 49.606 154.401 49.5278H222.695C223.111 49.5409 223.227 49.7362 223.059 50.1008L219.304 55.3098C219.044 55.7525 218.629 55.9739 218.031 55.9999H150.101H150.127Z" fill="#231F20"/>
<path d="M161.027 51.5215H162.066C162.495 51.5215 162.742 51.5996 162.846 51.795C162.924 51.9382 162.924 52.1466 162.82 52.381C162.703 52.6674 162.521 52.9019 162.274 53.0842C162.04 53.2535 161.781 53.3707 161.469 53.4358L161.547 54.4385H160.832L160.78 53.5139H160.313L159.689 54.4515H159.065L161.027 51.5215ZM161.261 52.9279C161.508 52.9279 161.742 52.8628 161.91 52.7326C162.014 52.6544 162.105 52.5502 162.144 52.433C162.183 52.3289 162.183 52.2638 162.144 52.1986C162.092 52.1205 161.975 52.0814 161.781 52.0814H161.261L160.702 52.9279H161.261Z" fill="white"/>
<path d="M164.885 51.4668H165.482L164.729 54.4099H164.079L164.261 53.7587H163.053L162.351 54.4229H161.676L164.872 51.4668H164.885ZM164.43 53.1858L164.69 52.2221L163.676 53.1988H164.43V53.1858Z" fill="white"/>
<path d="M165.588 53.1751C165.965 52.2375 167.082 51.417 168.044 51.404C168.589 51.404 168.862 51.6384 168.927 52.0161L168.252 52.3937C168.187 52.1463 168.057 52.0031 167.719 52.0031C167.199 52.0031 166.511 52.524 166.251 53.149C166.082 53.5657 166.251 53.8522 166.654 53.8522C166.927 53.8522 167.16 53.735 167.446 53.5657L167.667 53.9955C167.29 54.2559 166.875 54.4513 166.407 54.4513C165.627 54.4513 165.264 53.9694 165.588 53.1881" fill="white"/>
<path d="M169.809 51.4414H170.433L168.471 54.3714H167.848L169.809 51.4414Z" fill="white"/>
<path d="M171.144 51.4297H171.716L171.794 53.2788L173.041 51.4166H173.652L171.69 54.3467H171.157L171.079 52.4324L169.793 54.3597H169.183L171.144 51.4297Z" fill="white"/>
<path d="M173.095 53.1207C173.472 52.2091 174.563 51.3626 175.59 51.3496C176.187 51.3496 176.46 51.571 176.551 51.8445L175.915 52.2742C175.824 52.0919 175.668 51.9356 175.304 51.9356C174.693 51.9356 174.005 52.4826 173.758 53.0946C173.576 53.5504 173.797 53.7978 174.2 53.7978C174.421 53.7978 174.602 53.7457 174.758 53.6806L175.083 53.1988H174.447L174.823 52.6518H176.057L175.057 54.1104C174.706 54.2796 174.343 54.3969 173.914 54.3969C173.264 54.3969 172.745 54.0062 173.095 53.1337" fill="white"/>
<path d="M178.729 51.3748H179.561C180.106 51.3748 180.392 51.5181 180.522 51.7395C180.652 51.9609 180.626 52.2343 180.483 52.5989C180.301 53.0417 179.976 53.4454 179.548 53.7579C179.067 54.1095 178.495 54.3049 177.833 54.3049H176.768L178.729 51.3879V51.3748ZM178.132 53.7059C178.508 53.7059 178.911 53.5756 179.223 53.3412C179.483 53.1459 179.691 52.8854 179.807 52.612C179.885 52.4166 179.898 52.2604 179.833 52.1432C179.756 52.0129 179.587 51.9348 179.262 51.9348H178.95L177.768 53.7059H178.119H178.132Z" fill="white"/>
<path d="M181.889 51.3507L182.461 51.3377L182.539 53.1999L183.786 51.3246H184.397L182.435 54.2547L181.902 54.2677L181.824 52.3534L180.551 54.2677L179.928 54.2807L181.889 51.3507Z" fill="white"/>
<path d="M186.032 51.2828H186.63L185.876 54.2259H185.227L185.408 53.5748H184.2L183.499 54.2389H182.823L186.019 51.2828H186.032ZM185.577 53.0148L185.837 52.0512L184.811 53.0278H185.564L185.577 53.0148Z" fill="white"/>
<path d="M188.11 53.2799C188.175 53.1367 188.253 52.9804 188.37 52.8111L189.383 51.2875H190.007L188.955 52.8632C188.89 52.9674 188.838 53.0585 188.786 53.1757C188.669 53.4622 188.76 53.6576 189.084 53.6576C189.266 53.6576 189.448 53.5925 189.63 53.4753C189.799 53.345 189.968 53.1627 190.124 52.9283L191.228 51.2745H191.852L190.682 53.0195C190.435 53.3971 190.176 53.6836 189.89 53.892C189.565 54.1264 189.201 54.2566 188.773 54.2566C188.11 54.2566 187.85 53.905 188.11 53.2799Z" fill="white"/>
<path d="M192.513 51.2585H193.085L193.163 53.1076L194.41 51.2454L195.021 51.2324L193.072 54.1755H192.539L192.461 52.2612L191.175 54.1885H190.552L192.513 51.2585Z" fill="white"/>
<path d="M195.712 51.2327H196.335L194.776 53.5767L196.192 53.5637L195.803 54.1497L193.75 54.1627L195.712 51.2327Z" fill="white"/>
<path d="M198.258 51.2081L200.388 51.1951L199.998 51.7681L198.491 51.7811L198.089 52.3801L199.414 52.3671L199.037 52.9401L197.712 52.9531L197.296 53.5652L198.829 53.5521L198.439 54.1251L196.296 54.1512L198.258 51.2081Z" fill="white"/>
<path d="M201.913 51.1699H202.51L201.757 54.113H201.107L201.289 53.4619H200.081L199.38 54.126H198.704L201.9 51.1699H201.913ZM201.458 52.8889L201.718 51.9252L200.692 52.9019H201.445L201.458 52.8889Z" fill="white"/>
<path d="M202.183 53.603L202.819 53.1863C202.936 53.4337 203.131 53.564 203.456 53.564C203.716 53.564 203.937 53.4337 204.015 53.2514C204.08 53.1082 204.015 53.0301 203.69 52.8738C203.378 52.7175 203.131 52.5222 203.313 52.0924C203.56 51.4934 204.236 51.1158 204.833 51.1158C205.327 51.1158 205.587 51.285 205.716 51.5455L205.106 51.9883C204.976 51.7929 204.82 51.6757 204.547 51.6757C204.287 51.6757 204.067 51.832 204.015 51.9752C203.95 52.1315 204.041 52.1966 204.352 52.3529C204.677 52.5222 204.885 52.7175 204.716 53.1342C204.469 53.7463 203.794 54.1109 203.183 54.1239C202.638 54.1239 202.287 53.9416 202.17 53.59" fill="white"/>
<path d="M206.612 51.1458H207.236L206.469 52.3048L207.612 52.2918L208.379 51.1328H209.002L207.041 54.0628H206.417L207.21 52.8908L206.066 52.9039L205.287 54.0759H204.65L206.612 51.1458Z" fill="white"/>
<path d="M209.69 51.1162L211.821 51.1031L211.431 51.6761L209.924 51.6892L209.534 52.2882L210.846 52.2752L210.47 52.8481L209.145 52.8612L208.729 53.4732L210.262 53.4602L209.872 54.0332L207.729 54.0592L209.69 51.1162Z" fill="white"/>
<path d="M212.391 51.1031H213.222C213.781 51.1031 214.054 51.2464 214.184 51.4678C214.301 51.6761 214.288 51.9626 214.145 52.3272C213.963 52.77 213.638 53.1737 213.209 53.4862C212.729 53.8378 212.157 54.0332 211.508 54.0332H210.442L212.404 51.1031H212.391ZM211.793 53.4472C212.17 53.4472 212.573 53.317 212.898 53.0825C213.158 52.8872 213.365 52.6268 213.482 52.3533C213.56 52.158 213.573 52.0017 213.508 51.8845C213.43 51.7543 213.261 51.6761 212.937 51.6761H212.625L211.443 53.4472H211.793Z" fill="white"/>
<path fill-rule="evenodd" clip-rule="evenodd" d="M128.714 13.2069L133.417 13.0636C133.417 13.0636 133.534 13.1027 133.547 13.1548C133.547 13.2199 133.534 13.272 133.469 13.298C133.443 13.298 133.417 13.3241 133.391 13.3241C133.079 13.4543 132.754 13.5845 132.443 13.7147C130.247 14.6393 128.052 15.59 125.83 16.5536C123.7 17.4912 121.556 18.4419 119.413 19.4185C117.646 20.2129 115.866 21.0333 114.099 21.8667C113.982 21.9188 113.995 22.01 114.008 22.0491C114.047 22.1532 114.19 22.1402 114.19 22.1402L124.531 21.1766C124.531 21.1766 124.557 21.1766 124.57 21.1766C131.053 18.4419 137.548 15.7072 144.031 12.9725C144.589 12.7381 144.823 12.712 145.278 12.686L151.968 12.5427C151.968 12.5427 152.072 12.5688 152.085 12.6209C152.098 12.6729 152.085 12.725 152.059 12.7641L143.888 20.1999C143.888 20.1999 143.836 20.252 143.849 20.3041C143.875 20.3561 143.927 20.3561 143.966 20.3431L151.033 18.2465C151.033 18.2465 151.072 18.2465 151.085 18.2205C151.487 17.8689 157.32 12.7901 157.879 12.3344C157.905 12.3213 157.918 12.3083 157.957 12.3083L159.984 12.1651C159.984 12.1651 160.088 12.1911 160.114 12.2432C160.14 12.2953 160.114 12.3474 160.088 12.3864L146.499 25.5C146.499 25.5 146.499 25.5 146.486 25.513C146.473 25.526 146.447 25.5651 146.46 25.6042C146.473 25.6432 146.525 25.6432 146.564 25.6302L153.098 23.0518C153.098 23.0518 153.124 23.0388 153.137 23.0257L159.555 17.1526C159.555 17.1526 159.607 17.1136 159.646 17.1266C163.894 17.2308 168.61 15.5248 171.559 14.0794C171.611 14.0533 171.676 14.0663 171.715 14.1054C171.754 14.1445 171.754 14.2096 171.715 14.2617C171.429 14.6654 171.195 15.1472 171.078 15.5509C170.935 16.0457 170.909 16.8531 171.39 17.2829C171.741 17.5954 172.702 18.0642 175.742 17.6735L179.029 17.2959C179.029 17.2959 179.132 17.3219 179.158 17.361C179.184 17.4131 179.171 17.4652 179.132 17.5042L177.613 19.1451C177.249 19.5097 177.755 19.4185 177.755 19.4185L182.822 18.6111C182.822 18.6111 182.874 18.5981 182.9 18.5721L185.29 15.7202C185.29 15.7202 185.381 15.6681 185.433 15.6811C185.485 15.7072 185.511 15.7462 185.511 15.7983C185.498 17.0485 186.239 18.1944 187.057 18.2986C187.057 18.2986 187.057 18.2986 187.07 18.2986C187.213 18.3377 189.538 18.8846 195.956 16.8922C196.008 16.8792 196.073 16.8922 196.099 16.9443C196.125 16.9964 196.125 17.0615 196.073 17.1006L193.475 19.6269C193.462 19.6269 193.358 19.7311 193.423 19.8222C193.449 19.8613 193.553 19.8613 193.618 19.8353L199.386 18.7544C199.386 18.7544 199.438 18.7414 199.451 18.7153L204.075 14.1575C204.075 14.1575 204.114 14.1314 204.14 14.1184L206.453 13.6106C206.505 13.6106 206.907 13.5585 206.596 13.9101L201.802 19.7181C201.802 19.7181 201.698 19.8353 201.75 19.9264C201.802 20.0045 201.932 19.9655 201.958 19.9525L212.727 17.3089C212.792 17.2959 212.857 17.335 212.87 17.4001C213.065 18.1423 213.559 18.8976 214.715 19.2623C215.105 19.3795 215.767 19.5357 216.313 19.5748C219.405 19.7441 225.29 18.7804 231.551 16.1499L234.085 15.0821C234.085 15.0821 234.111 15.0691 234.124 15.056C234.176 15.017 234.28 14.8867 234.072 14.9388C233.877 14.9779 233.682 15.017 233.487 15.0691C232.591 15.2644 222.094 17.387 219.431 16.9573C219.171 16.9182 219.067 16.801 219.041 16.7489C219.041 16.7489 219.041 16.7229 219.028 16.7229C219.015 16.6708 218.963 16.4755 219.093 16.1499C219.106 16.1108 219.145 16.0848 219.184 16.0718L228.226 13.9752C228.252 13.9752 228.564 13.884 228.836 13.6757C229.031 13.5324 229.187 13.3241 229.369 13.0897C229.616 12.7641 229.863 12.2953 229.668 11.9046C229.603 11.7874 229.395 11.6312 229.239 11.514C228.213 10.8368 227.186 10.381 226.173 10.0164C225.225 9.67779 223.991 9.70384 222.562 10.0034C219.924 10.5373 217.495 11.6702 215.975 12.699C214.728 13.5454 213.754 14.5482 213.052 15.4337C213.026 15.4597 213.013 15.4728 212.974 15.4728L210.987 15.8113C210.987 15.8113 210.883 15.7983 210.857 15.7462C210.831 15.6941 210.831 15.642 210.87 15.603L215.689 10.2117C215.715 10.1726 215.871 9.95126 215.533 9.84708C214.793 9.6257 214.04 9.45641 213.286 9.35224C213.117 9.32619 212.792 9.30014 212.416 9.3913C210.857 9.76895 209.311 10.2768 207.765 10.8628C207.713 10.8759 207.648 10.8628 207.609 10.8107C207.583 10.7587 207.583 10.6935 207.622 10.6545L216.274 2.16388C216.274 2.16388 216.274 2.16388 216.287 2.13784C216.3 2.11179 216.326 2.0597 216.287 2.02063C216.248 1.98157 216.183 2.00761 216.157 2.02063C216.157 2.02063 216.157 2.02063 216.144 2.02063L206.466 6.78682C206.466 6.78682 206.44 6.79985 206.44 6.81287L198.996 14.1705C198.996 14.1705 198.957 14.1966 198.931 14.2096L196.722 14.6654C195.099 14.9388 192.76 15.2904 192.072 15.056C191.864 14.9779 191.747 14.8347 191.682 14.6914C191.461 14.1835 192.24 13.5585 192.24 13.5585C194.345 11.9176 197.333 10.98 200.75 10.4982C200.776 10.4982 200.802 10.4852 200.815 10.4591L202.815 8.49276C202.815 8.49276 202.815 8.49276 202.815 8.47973C202.841 8.44067 202.971 8.27138 202.711 8.29742L200.49 8.50578C195.488 9.09179 191.409 10.381 189.032 11.4749C188.98 11.5009 188.915 11.4749 188.876 11.4358C188.837 11.3837 188.837 11.3186 188.876 11.2795L190.643 9.14388C190.643 9.14388 190.785 8.97458 190.785 8.7532C190.785 8.59693 190.759 8.2844 190.552 8.02395C190.409 7.84164 190.214 7.81559 190.214 7.81559C187.953 7.49003 184.719 7.71142 180.458 8.5188C179.938 8.60996 179.834 8.62298 179.301 8.74018C179.301 8.74018 179.042 8.80529 178.873 8.85738C178.717 8.90947 178.626 8.98761 178.561 9.06574L178.392 9.35224C178.392 9.35224 178.366 9.44339 178.392 9.48246C178.418 9.52152 178.457 9.54757 178.509 9.53455C182.315 9.18294 184.576 9.06574 185.342 9.26108C185.498 9.30015 185.563 9.45641 185.485 9.57361C185.407 9.69081 185.251 9.87313 185.121 10.0164C185.095 10.0424 185.069 10.0554 185.03 10.0554C181.406 10.2508 176.56 11.2926 175.118 11.6051C175.066 11.6051 175.014 11.5921 174.988 11.54C174.962 11.4879 174.975 11.4358 175.001 11.3967C175.963 10.381 177.171 8.66205 177.483 7.63328C177.522 7.50306 177.509 7.19052 177.106 7.19052C174.508 7.19052 171.494 7.93279 169.246 8.29742C169.194 8.29742 169.142 8.2844 169.116 8.21929C169.09 8.1672 169.116 8.11511 169.142 8.07604L170.389 6.99518C170.558 6.83891 170.441 6.82589 170.389 6.82589C170.389 6.82589 170.376 6.82589 170.364 6.82589L164.297 8.1672C164.297 8.1672 164.258 8.18022 164.232 8.19324L162.426 9.95126C162.426 9.95126 162.374 9.99033 162.348 9.99033L160.711 10.0554C160.711 10.0554 160.607 10.0294 160.594 9.97731C160.568 9.92522 160.594 9.87313 160.633 9.83406C161.802 8.80529 166.518 4.62511 168.584 2.91918C169.051 2.5285 168.519 2.61966 168.467 2.63269L158.762 3.85679C158.762 3.85679 158.762 3.85679 158.749 3.85679C155.723 4.69022 149.981 6.57847 146.408 7.97186C144.862 8.55787 141.16 10.0164 140.783 10.1726C140.77 10.1726 140.757 10.1726 140.731 10.1726L133.651 10.2117C133.651 10.2117 133.612 10.2117 133.586 10.2247L128.623 12.9855C128.623 12.9855 128.532 13.0636 128.675 13.0636M222.523 12.4646C222.523 12.4646 223.016 12.3604 223.393 12.3604C223.393 12.3604 224.523 12.3213 225.693 12.8683C225.822 12.9334 225.848 13.0376 225.848 13.1417C225.848 13.2329 225.822 13.298 225.822 13.298C225.77 13.4022 225.628 13.4543 225.615 13.4673C225.602 13.4673 225.433 13.5454 225.277 13.5585L219.86 14.4049C219.86 14.4049 219.756 14.3919 219.73 14.3528C219.704 14.3138 219.704 14.2617 219.73 14.2096C220.327 13.3762 221.353 12.7641 222.51 12.4646H222.523ZM154.813 10.2117L151.176 10.2508C151.176 10.2508 151.059 10.2117 151.059 10.1466C151.059 10.0945 151.072 10.0294 151.137 10.0034L157.97 7.03425C157.97 7.03425 158.087 7.03425 158.126 7.08634C158.165 7.13843 158.152 7.20354 158.1 7.24261L154.904 10.1726C154.904 10.1726 154.852 10.2117 154.826 10.2117H154.813ZM171.26 10.2768C169.74 11.6702 166.713 12.5948 164.258 13.1548L163.829 13.2329C163.829 13.2329 163.712 13.2199 163.699 13.1678C163.673 13.1157 163.686 13.0506 163.725 13.0245C164.829 12.0348 165.921 11.2275 166.479 10.7196C166.505 10.7066 166.518 10.6935 166.544 10.6935L171.234 9.93824C171.234 9.93824 171.286 9.93824 171.299 9.93824C171.377 9.96429 171.494 10.0554 171.26 10.2638V10.2768ZM181.445 14.5221L176.781 14.9128C176.781 14.9128 176.755 14.9128 176.742 14.9128C176.703 14.9128 176.664 14.8867 176.69 14.8086C177.119 13.9491 180.99 12.8162 183.251 12.4776C183.303 12.4776 183.355 12.4906 183.381 12.5427C183.407 12.5948 183.394 12.6469 183.355 12.686C182.809 13.2459 182.133 13.884 181.51 14.4831C181.484 14.5091 181.458 14.5091 181.432 14.5221H181.445Z" fill="#231F20"/>
</svg>
